<svg aria-hidden="true" style="position: absolute; width: 0; height: 0; overflow: hidden;" version="1.1"
    xmlns="http://www.w3.org/2000/svg"
    xmlns:xlink="http://www.w3.org/1999/xlink">
    <defs>
        <symbol id="icon-close" viewBox="0 0 32 32">
            <path d="M17.253 16l7.369-7.369c0.146-0.17 0.222-0.389 0.213-0.613s-0.101-0.436-0.26-0.594c-0.158-0.158-0.37-0.251-0.594-0.26s-0.442 0.067-0.612 0.213l-7.369 7.369-7.369-7.378c-0.167-0.167-0.394-0.261-0.631-0.261s-0.464 0.094-0.631 0.261c-0.167 0.167-0.261 0.394-0.261 0.631s0.094 0.464 0.261 0.631l7.378 7.369-7.378 7.369c-0.093 0.080-0.169 0.178-0.222 0.288s-0.083 0.23-0.088 0.353c-0.005 0.123 0.016 0.245 0.061 0.359s0.112 0.218 0.199 0.304c0.087 0.087 0.19 0.154 0.304 0.199s0.236 0.065 0.359 0.060c0.122-0.005 0.243-0.035 0.353-0.088s0.208-0.129 0.288-0.222l7.378-7.369 7.369 7.369c0.17 0.146 0.389 0.222 0.612 0.213s0.436-0.101 0.594-0.26c0.158-0.158 0.251-0.37 0.26-0.594s-0.067-0.442-0.213-0.612l-7.369-7.369z"></path>
        </symbol>
        <symbol id="icon-bracket" viewBox="0 0 32 32">
            <path stroke-width="5.3333" stroke-miterlimit="4" stroke-linecap="round" stroke-linejoin="round" d="M10.667 5.333l13.2 10.667-13.2 10.667"></path>
        </symbol>
            <symbol id="icon-pointer" viewBox="0 0 84 32">
            <path d="M82.643 17.191c0.781-0.781 0.781-2.047 0-2.828l-12.728-12.728c-0.781-0.781-2.047-0.781-2.828 0s-0.781 2.047 0 2.828l11.314 11.314-11.314 11.314c-0.781 0.781-0.781 2.047 0 2.829s2.047 0.781 2.828 0l12.728-12.728zM0.76 17.777h80.469v-4h-80.469v4z"></path>
        </symbol>
        <symbol id="icon-github" viewBox="0 0 31 32">
            <path fill="#f8d24e" style="fill: var(--color1, #f8d24e)" d="M31.030 16.43c0 8.571-6.946 15.519-15.515 15.519s-15.515-6.948-15.515-15.519c0-8.571 6.946-15.519 15.515-15.519s15.515 6.948 15.515 15.519z"></path>
            <path d="M15.515 7.301c-5.013 0-9.127 4.115-9.127 9.129 0 4.279 3.002 8.165 6.988 9.129v-3.020c-0.395 0.087-0.758 0.089-1.16-0.030-0.539-0.159-0.978-0.519-1.303-1.067-0.207-0.35-0.575-0.729-0.958-0.701l-0.094-1.066c0.829-0.071 1.546 0.505 1.972 1.221 0.189 0.318 0.407 0.505 0.686 0.587 0.27 0.079 0.56 0.041 0.898-0.078 0.085-0.677 0.395-0.93 0.629-1.286v-0c-2.377-0.355-3.325-1.616-3.701-2.612-0.498-1.322-0.231-2.974 0.65-4.017 0.017-0.020 0.048-0.074 0.036-0.111-0.404-1.221 0.088-2.23 0.106-2.338 0.466 0.138 0.542-0.139 2.025 0.763l0.256 0.154c0.107 0.064 0.073 0.027 0.181 0.019 0.619-0.168 1.272-0.261 1.915-0.269 0.648 0.008 1.297 0.101 1.942 0.276l0.083 0.008c-0.007-0.001 0.023-0.005 0.073-0.035 1.853-1.123 1.786-0.756 2.283-0.917 0.018 0.107 0.504 1.133 0.104 2.339-0.054 0.166 1.606 1.687 0.686 4.128-0.376 0.996-1.323 2.257-3.7 2.612v0c0.305 0.465 0.671 0.712 0.669 1.67v3.77c3.986-0.963 6.988-4.85 6.988-9.129 0-5.014-4.114-9.129-9.126-9.129v0z"></path>
        </symbol>
            <symbol id="icon-facebook" viewBox="0 0 32 32">
<path d="M22.512 0.006l-3.616-0.006c-4.064 0-6.69 3.092-6.69 7.876v3.63h-3.638c-0.314 0-0.568 0.294-0.568 0.654v5.26c0 0.36 0.254 0.652 0.568 0.652h3.638v13.276c0 0.36 0.254 0.652 0.568 0.652h4.746c0.314 0 0.568-0.292 0.568-0.652v-13.276h4.252c0.314 0 0.568-0.292 0.568-0.652l0.002-5.26c0-0.174-0.060-0.34-0.166-0.462-0.097-0.116-0.241-0.189-0.402-0.192h-4.254v-3.078c0-1.48 0.308-2.23 1.986-2.23h2.438c0.314 0 0.568-0.294 0.568-0.654v-4.884c0-0.36-0.254-0.652-0.568-0.654z"></path>
</symbol>
        <symbol id="icon-menu" viewBox="0 0 32 32">
            <path stroke-width="2" stroke-miterlimit="4" stroke-linecap="round" stroke-linejoin="miter" d="M6 10h20"></path>
            <path stroke-width="2" stroke-miterlimit="4" stroke-linecap="round" stroke-linejoin="miter" d="M6 16h20"></path>
            <path stroke-width="2" stroke-miterlimit="4" stroke-linecap="round" stroke-linejoin="miter" d="M6 22h20"></path>
        </symbol>
        <symbol id="icon-ep_close" viewBox="0 0 32 32">
            <path d="M23.884 6.706l-7.884 7.884-7.884-7.884c-0.19-0.174-0.439-0.267-0.696-0.261s-0.502 0.11-0.684 0.292c-0.182 0.182-0.286 0.427-0.292 0.684s0.088 0.506 0.261 0.696l7.88 7.884-7.882 7.882c-0.096 0.092-0.173 0.202-0.226 0.324s-0.081 0.253-0.083 0.386 0.023 0.265 0.073 0.388c0.050 0.123 0.124 0.235 0.218 0.329s0.206 0.169 0.329 0.219 0.255 0.075 0.388 0.074c0.133-0.002 0.264-0.029 0.386-0.082s0.232-0.13 0.324-0.226l7.886-7.882 7.884 7.884c0.19 0.174 0.439 0.267 0.696 0.262s0.502-0.11 0.684-0.292c0.182-0.182 0.286-0.427 0.292-0.684s-0.088-0.506-0.262-0.696l-7.884-7.884 7.884-7.886c0.096-0.092 0.173-0.202 0.226-0.324s0.081-0.253 0.083-0.386c0.002-0.133-0.023-0.265-0.073-0.388s-0.124-0.235-0.218-0.329c-0.094-0.094-0.206-0.169-0.329-0.219s-0.255-0.075-0.388-0.074-0.264 0.029-0.386 0.082c-0.122 0.053-0.232 0.13-0.324 0.226v0.002z"></path>
        </symbol>
       
        <symbol id="icon-frame-57" viewBox="0 0 82 32">
            <path fill="#fcfcfc" style="fill: var(--color1, #fcfcfc)" d="M81.414 17.414c0.781-0.781 0.781-2.047 0-2.828l-12.728-12.728c-0.781-0.781-2.047-0.781-2.828 0s-0.781 2.047 0 2.828l11.314 11.314-11.314 11.314c-0.781 0.781-0.781 2.047 0 2.828s2.047 0.781 2.828 0l12.728-12.728zM0 18h80v-4h-80v4z"></path>
        </symbol>
        <symbol id="icon-angle-right" viewBox="0 3 10 24">
            <path d="M14.019 17.062l-8.5 8.5c-0.588 0.588-1.538 0.588-2.119 0l-1.413-1.412c-0.587-0.588-0.587-1.538 0-2.119l6.025-6.025-6.025-6.025c-0.587-0.588-0.587-1.537 0-2.119l1.406-1.425c0.587-0.588 1.537-0.588 2.119 0l8.5 8.5c0.594 0.588 0.594 1.538 0.006 2.125z"></path>
        </symbol>

        <symbol id="icon-instagram" viewBox="0 0 32 32">
<path d="M31.969 9.408c-0.075-1.7-0.35-2.869-0.744-3.882-0.406-1.075-1.032-2.038-1.851-2.838-0.8-0.813-1.769-1.444-2.832-1.844-1.019-0.394-2.182-0.669-3.882-0.744-1.713-0.081-2.257-0.1-6.601-0.1s-4.888 0.019-6.595 0.094c-1.7 0.075-2.869 0.35-3.882 0.744-1.075 0.406-2.038 1.031-2.838 1.85-0.813 0.8-1.444 1.769-1.844 2.832-0.394 1.019-0.669 2.182-0.744 3.882-0.081 1.713-0.1 2.257-0.1 6.601s0.019 4.888 0.094 6.595c0.075 1.7 0.35 2.869 0.744 3.882 0.406 1.075 1.038 2.038 1.85 2.838 0.8 0.813 1.769 1.444 2.832 1.844 1.019 0.394 2.182 0.669 3.882 0.744 1.706 0.075 2.25 0.094 6.595 0.094s4.888-0.019 6.595-0.094c1.7-0.075 2.869-0.35 3.882-0.744 2.151-0.832 3.851-2.532 4.682-4.682 0.394-1.019 0.669-2.182 0.744-3.882 0.075-1.707 0.094-2.251 0.094-6.595s-0.006-4.888-0.081-6.595zM29.087 22.473c-0.069 1.563-0.331 2.407-0.55 2.969-0.538 1.394-1.644 2.5-3.038 3.038-0.563 0.219-1.413 0.481-2.969 0.55-1.688 0.075-2.194 0.094-6.464 0.094s-4.782-0.019-6.464-0.094c-1.563-0.069-2.407-0.331-2.969-0.55-0.694-0.256-1.325-0.663-1.838-1.194-0.531-0.519-0.938-1.144-1.194-1.838-0.219-0.563-0.481-1.413-0.55-2.969-0.075-1.688-0.094-2.194-0.094-6.464s0.019-4.782 0.094-6.464c0.069-1.563 0.331-2.407 0.55-2.969 0.256-0.694 0.663-1.325 1.2-1.838 0.519-0.531 1.144-0.938 1.838-1.194 0.563-0.219 1.413-0.481 2.969-0.55 1.688-0.075 2.194-0.094 6.464-0.094 4.276 0 4.782 0.019 6.464 0.094 1.563 0.069 2.407 0.331 2.969 0.55 0.694 0.256 1.325 0.662 1.838 1.194 0.531 0.519 0.938 1.144 1.194 1.838 0.219 0.563 0.481 1.413 0.55 2.969 0.075 1.688 0.094 2.194 0.094 6.464s-0.019 4.77-0.094 6.458z"></path>
<path d="M16.059 7.783c-4.538 0-8.22 3.682-8.22 8.22s3.682 8.22 8.22 8.22c4.538 0 8.22-3.682 8.22-8.22s-3.682-8.22-8.22-8.22zM16.059 21.335c-2.944 0-5.332-2.388-5.332-5.332s2.388-5.332 5.332-5.332c2.944 0 5.332 2.388 5.332 5.332s-2.388 5.332-5.332 5.332z"></path>
<path d="M26.524 7.458c0 1.060-0.859 1.919-1.919 1.919s-1.919-0.859-1.919-1.919c0-1.060 0.859-1.919 1.919-1.919s1.919 0.859 1.919 1.919z"></path>
</symbol>

<symbol id="icon-twitter" viewBox="0 0 32 32">
<path d="M32 6.078c-1.19 0.522-2.458 0.868-3.78 1.036 1.36-0.812 2.398-2.088 2.886-3.626-1.268 0.756-2.668 1.29-4.16 1.588-1.204-1.282-2.92-2.076-4.792-2.076-3.632 0-6.556 2.948-6.556 6.562 0 0.52 0.044 1.020 0.152 1.496-5.454-0.266-10.28-2.88-13.522-6.862-0.566 0.982-0.898 2.106-0.898 3.316 0 2.272 1.17 4.286 2.914 5.452-1.054-0.020-2.088-0.326-2.964-0.808 0 0.020 0 0.046 0 0.072 0 3.188 2.274 5.836 5.256 6.446-0.534 0.146-1.116 0.216-1.72 0.216-0.42 0-0.844-0.024-1.242-0.112 0.85 2.598 3.262 4.508 6.13 4.57-2.232 1.746-5.066 2.798-8.134 2.798-0.538 0-1.054-0.024-1.57-0.090 2.906 1.874 6.35 2.944 10.064 2.944 12.072 0 18.672-10 18.672-18.668 0-0.29-0.010-0.57-0.024-0.848 1.302-0.924 2.396-2.078 3.288-3.406z"></path>
</symbol>

<symbol id="icon-burger" viewBox="0 0 48 32">
<path d="M0 5.333v-5.333h48v5.333h-48zM0 18.667h48v-5.333h-48v5.333zM0 32h48v-5.333h-48v5.333z"></path>
</symbol>

    </defs>
</svg>
